<?xml version="1.0" encoding="UTF-8"?>
<svg id="Layer_1" data-name="Layer 1" xmlns="http://www.w3.org/2000/svg" version="1.1" viewBox="0 0 1302 910.4">
  <path d="M1010,496.1h245.9c8.1,0,12.9,0,16.2,1.3,4.7,1.7,8.3,5.4,10,10,1.3,3.2,1.3,8.1,1.3,16.2v292.6c0,8.1,0,12.9-1.3,16.2-1.7,4.7-5.4,8.3-10,10-3.2,1.3-8.1,1.3-16.2,1.3h-245.9c-8.1,0-12.9,0-16.2-1.3-4.7-1.7-8.3-5.4-10-10-1.3-3.2-1.3-8.1-1.3-16.2v-292.6c0-8.1,0-12.9,1.3-16.2,1.7-4.7,5.4-8.3,10-10,3.2-1.3,8.1-1.3,16.2-1.3Z" fill="#efefef" stroke-width="0"/>
  <path d="M1010,496.1h245.9c8.1,0,12.9,0,16.2,1.3,4.7,1.7,8.3,5.4,10,10,1.3,3.2,1.3,8.1,1.3,16.2v292.6c0,8.1,0,12.9-1.3,16.2-1.7,4.7-5.4,8.3-10,10-3.2,1.3-8.1,1.3-16.2,1.3h-245.9c-8.1,0-12.9,0-16.2-1.3-4.7-1.7-8.3-5.4-10-10-1.3-3.2-1.3-8.1-1.3-16.2v-292.6c0-8.1,0-12.9,1.3-16.2,1.7-4.7,5.4-8.3,10-10,3.2-1.3,8.1-1.3,16.2-1.3Z" fill="none" stroke="#000" stroke-width="2"/>
  <path d="M385.1,772.7c23.8,23.8,23.8,62.5,0,86.3-23.8,23.8-62.4,23.8-86.3,0s-23.8-62.5,0-86.3c23.8-23.8,62.4-23.8,86.3,0Z" fill="none" stroke="#000" stroke-width="2"/>
  <path d="M346.7,829.6h-9.1c-.4,0-1.5,0-1.5-1.2s1.1-1.2,1.5-1.2h2.5v-16.5c-.9.3-2,.4-3,.4s-1.5,0-1.5-1.2.8-1.2,1.4-1.2c3.2,0,4.4-1.2,5-1.8.4-.4.5-.4,1.2-.4,1.4,0,1.4.9,1.4,1.5v19.1h2.2c.4,0,1.5,0,1.5,1.2s-1.2,1.2-1.5,1.2Z" fill="#000" stroke-width="0"/>
  <path d="M699,770.3c29.3,29.3,29.3,76.8,0,106.1-29.3,29.3-76.8,29.3-106.1,0-29.3-29.3-29.3-76.8,0-106.1,29.3-29.3,76.8-29.3,106.1,0Z" fill="none" stroke="#000" stroke-width="2"/>
  <path d="M651.5,837.3h-11c-1.2,0-1.5-.4-1.5-1.5v-.3c0-.5,0-.6.3-.9l6.1-6.5c1.9-2,3.1-4.2,3.1-6.2s-1-4.2-3.5-4.2-3.1,1.3-3.8,3.6c0,.4-.2.6-.4.6s-.3-.1-.5-.4l-1.6-2c.6-2.1,2-3.3,2.3-3.5,1.5-1.2,3.4-1.4,4.5-1.4,4.7,0,7.5,3.5,7.5,7.4s-1.8,4.5-3.5,6.3c-.5.4-1.7,1.4-2.2,1.9l-4.2,4h7.4c.6,0,1.7,0,1.9,0,.7.3.7.9.7,1.4v.4c0,1.1-.3,1.5-1.5,1.5Z" fill="#000" stroke-width="0"/>
  <ellipse cx="922.1" cy="819.9" rx="35" ry="35" fill="none" stroke="#000" stroke-width="2"/>
  <path d="M921.7,829c-4.2,0-6.9-2.6-6.9-3s.4-2.2.4-2.2c0,0,0-.4.4-.4s.2,0,.4.3c2.1,2,4.5,2.2,5.5,2.2,2.9,0,3.1-2.1,3.1-4.3s-.4-4.3-3.3-4.3h-1.4c-.8,0-.9,0-.9-.9v-.6c0-.5,0-.7.2-.8,0,0,.7,0,1.1-.1,1,0,1.8-.1,2.5-1,1-1.2,1-2.8,1-3.2,0-1.6-.3-2.6-2.3-2.6s-2.7,0-4.3,2.3c-.2.2-.2.4-.4.4,0,0-.2,0-.5-.4l-.9-1.3s-.2-.3-.2-.5,2.1-3.4,6.5-3.4,6.7.4,6.7,5.5-.9,3.9-3.5,5.3c2.9.7,4.4,2.7,4.4,5.6,0,4.3-2.2,7.2-7.7,7.2Z" fill="#000" stroke-width="0"/>
  <path d="M97,201.8c18.4,18.4,18.4,48.2,0,66.5-18.4,18.4-48.1,18.4-66.5,0-18.4-18.4-18.4-48.2,0-66.5,18.4-18.4,48.1-18.4,66.5,0Z" fill="none" stroke="#000" stroke-width="2"/>
  <path d="M70,243.7h-1.3v3.4c0,1.1-.3,1.5-1.5,1.5h-.9c-1.3,0-1.5-.5-1.5-1.5v-3.4h-7.2c-1.3,0-1.5-.5-1.5-1.5v-.8c0-.6,0-.7.3-1.2l7.1-13.1c.4-.7.9-.7,1.5-.7h2.3c1.2,0,1.5.4,1.5,1.5v12.8h1.3c1.1,0,1.5.3,1.5,1.5s-.5,1.5-1.5,1.5ZM64.8,229.8h0c-.2.5-.4,1.5-5.6,10.9h5.6v-10.9Z" fill="#000" stroke-width="0"/>
  <path d="M960.6,337.1c30.1,30.1,30.1,78.9,0,109-30.1,30.1-78.8,30.1-108.9,0-30.1-30.1-30.1-78.9,0-109,30.1-30.1,78.8-30.1,108.9,0Z" fill="none" stroke="#000" stroke-width="2"/>
  <path d="M905.1,405.5c-4.6,0-6.7-3.5-6.7-3.7s.7-1.3,1.2-2.1c.2-.3.3-.4.5-.4s.3.2.4.4c1.3,2.5,3.5,2.8,4.4,2.8,3.4,0,3.4-2.4,3.4-4.9s0-4.9-2.1-4.9-2.4.6-3.2,1.9c-.4.8-.7.8-1.6.8s-1.6,0-1.6-1.5v-9.8c0-1.3.5-1.5,1.5-1.5h8.9c1.5,0,1.5.8,1.5,1.6s0,1.6-1.5,1.6h-6.3v5c.8-.3,1.5-.4,2.3-.4,4.9,0,6.7,3.1,6.7,7.4s-2.8,7.8-8,7.8Z" fill="#000" stroke-width="0"/>
  <ellipse cx="935.5" cy="86.3" rx="35" ry="35" fill="none" stroke="#000" stroke-width="2"/>
  <path d="M940.9,93.4c-1.3,1.5-2.8,2.1-5.3,2.1-7.5,0-7.5-8.3-7.5-11.6s0-12,9.2-12,1.2,0,2,.3c1.1.4,1.1.4,1.1,1.2v1.2c0,.5,0,.9-.4.9s-.3,0-.5-.2c-.8-.4-1.6-.5-2.2-.5-1.1,0-3.2.3-4.2,2.7-.5,1.3-.5,2-.7,4.9.9-1.9,2.1-2.8,3.9-2.8,6.2,0,6.2,6,6.2,7.8s-.2,4.3-1.9,6.2ZM935.7,81.7c-2.3,0-3,2.4-3,5.1s.4,5.6,2.9,5.6,2.7-2.1,2.7-5.3,0-5.4-2.6-5.4Z" fill="#000" stroke-width="0"/>
  <ellipse cx="581.5" cy="410.6" rx="35" ry="35" fill="none" stroke="#000" stroke-width="2"/>
  <path d="M588.5,399.6c-3.8,4.8-6.6,10.6-6.7,18.6,0,1.2-1,1.2-1.5,1.2h-1.5c-1.3,0-1.5-.5-1.5-1.5,0-1.6,0-9.7,7.2-17.6h-7.6c-.7,0-1.7,0-2,0-.7-.3-.7-.9-.7-1.4v-.4c0-1.5.6-1.5,2.2-1.5h11.1c1.3,0,1.3.9,1.3,1.6s0,.8-.3,1.2Z" fill="#000" stroke-width="0"/>
  <path d="M342.8,80.8c16.8,16.8,16.8,44.1,0,60.9s-44,16.8-60.8,0c-16.8-16.8-16.8-44.1,0-60.9,16.8-16.8,44-16.8,60.8,0Z" fill="none" stroke="#000" stroke-width="2"/>
  <path d="M312.3,125.9c-4.6,0-7.3-2.2-7.3-7.2s.6-4.5,3.9-5.5c-2.9-1-3.5-3-3.5-4.7,0-5,3.4-6.2,6.8-6.2s6.8,1.5,6.8,6.2-.4,3.7-3.5,4.7c2.6.7,3.9,2.6,3.9,5.5,0,4.8-2.5,7.2-7.3,7.2ZM312.3,114.3c-2.8,0-2.8,2.2-2.8,4.3s0,4.3,2.9,4.3,2.8-1.9,2.8-4.3,0-4.3-2.9-4.3ZM312.3,105.1c-2.5,0-2.7,1.2-2.7,3.4s0,3.5,2.8,3.5,2.7-1.6,2.7-3.5-.2-3.4-2.8-3.4Z" fill="#000" stroke-width="0"/>
  <path d="M372.3,336.4c16.8,16.8,16.8,44.1,0,60.9s-44,16.8-60.8,0c-16.8-16.8-16.8-44.1,0-60.9,16.8-16.8,44-16.8,60.8,0Z" fill="none" stroke="#000" stroke-width="2"/>
  <path d="M340.5,381.5c-3.1,0-4.8-1.7-4.8-2s.4-.9,1.1-2c.2-.3.2-.4.5-.4s.3,0,.4.3c.9.8,1.8,1.1,2.8,1.1,3.5,0,4.1-3.2,4.3-5.2,0-1.4,0-2,0-2.3-.4,1-1.5,2.9-3.9,2.9s-3.5-.5-4.8-2.1c-1.4-1.8-1.4-3.6-1.4-5.7s.2-4.1,1.6-5.8c1.7-2,3.8-2.4,5.8-2.4,7.3,0,7.3,8.1,7.3,11.5s0,12.1-8.8,12.1ZM342,360.7c-2.9,0-2.9,2.3-2.9,5.4s0,5.5,2.6,5.5,3.1-4.6,3.1-5.1c0-3.4-.5-5.8-2.7-5.8Z" fill="#000" stroke-width="0"/>
  <path d="M126.1,521.4c17.6,17.6,17.6,46.1,0,63.7s-46.1,17.6-63.6,0c-17.6-17.6-17.6-46.1,0-63.7,17.6-17.6,46.1-17.6,63.6,0Z" fill="none" stroke="#000" stroke-width="2"/>
  <g>
    <path d="M90.3,566.8h-9.1c-.4,0-1.5,0-1.5-1.2s1.1-1.2,1.5-1.2h2.5v-16.5c-.9.3-2,.4-3,.4s-1.5,0-1.5-1.2.8-1.2,1.4-1.2c3.2,0,4.4-1.2,5-1.8.4-.4.5-.4,1.2-.4,1.4,0,1.4.9,1.4,1.5v19.1h2.2c.4,0,1.5,0,1.5,1.2s-1.2,1.2-1.5,1.2Z" fill="#000" stroke-width="0"/>
    <path d="M103.1,567.5c-7.4,0-7.4-7.3-7.4-11.7s0-11.9,7.4-11.9,7.4,7.6,7.4,11.9,0,11.7-7.4,11.7ZM105.9,549.5c0-.6-.5-3.3-2.8-3.3s-2.8,2.8-2.8,3.7c-.2,1.6-.2,3.6-.2,5.5s0,4.3.2,6c0,.9.4,3.8,2.8,3.8s2.8-2.9,2.8-3.7c.2-1.8.2-4.3.2-6.1s0-4.2-.2-5.9Z" fill="#000" stroke-width="0"/>
  </g>
  <path d="M1228.4,207.5c15.2,15.2,15.2,39.9,0,55.2-15.2,15.2-39.9,15.2-55.1,0-15.2-15.2-15.2-39.9,0-55.2,15.2-15.2,39.9-15.2,55.1,0Z" fill="none" stroke="#000" stroke-width="2"/>
  <g>
    <path d="M1196.9,242.6h-9.1c-.4,0-1.5,0-1.5-1.2s1.1-1.2,1.5-1.2h2.5v-16.5c-.9.3-2,.4-3,.4s-1.5,0-1.5-1.2.8-1.2,1.4-1.2c3.2,0,4.4-1.2,5-1.8.4-.4.5-.4,1.2-.4,1.4,0,1.4.9,1.4,1.5v19.1h2.2c.4,0,1.5,0,1.5,1.2s-1.2,1.2-1.5,1.2Z" fill="#000" stroke-width="0"/>
    <path d="M1214.5,242.6h-9.1c-.4,0-1.5,0-1.5-1.2s1.1-1.2,1.5-1.2h2.5v-16.5c-.9.3-2,.4-3,.4s-1.5,0-1.5-1.2.8-1.2,1.4-1.2c3.2,0,4.4-1.2,5-1.8.4-.4.5-.4,1.2-.4,1.4,0,1.4.9,1.4,1.5v19.1h2.2c.4,0,1.5,0,1.5,1.2s-1.2,1.2-1.5,1.2Z" fill="#000" stroke-width="0"/>
  </g>
  <ellipse cx="636.5" cy="53.4" rx="35" ry="35" fill="none" stroke="#000" stroke-width="2"/>
  <g>
    <path d="M632.5,65.9h-9.1c-.4,0-1.5,0-1.5-1.2s1.1-1.2,1.5-1.2h2.5v-16.5c-.9.3-2,.4-3,.4s-1.5,0-1.5-1.2.8-1.2,1.4-1.2c3.2,0,4.4-1.2,5-1.8.4-.4.5-.4,1.2-.4,1.4,0,1.4.9,1.4,1.5v19.1h2.2c.4,0,1.5,0,1.5,1.2s-1.2,1.2-1.5,1.2Z" fill="#000" stroke-width="0"/>
    <path d="M644.4,66.6c-4.6,0-6.7-3.5-6.7-3.7s.7-1.3,1.2-2.1c.2-.3.3-.4.5-.4s.3.2.4.4c1.3,2.5,3.5,2.8,4.4,2.8,3.4,0,3.4-2.4,3.4-4.9s0-4.9-2.1-4.9-2.4.6-3.2,1.9c-.4.8-.7.8-1.6.8s-1.6,0-1.6-1.5v-9.8c0-1.3.5-1.5,1.5-1.5h8.9c1.5,0,1.5.8,1.5,1.6s0,1.6-1.5,1.6h-6.3v5c.8-.3,1.5-.4,2.3-.4,4.9,0,6.7,3.1,6.7,7.4s-2.8,7.8-8,7.8Z" fill="#000" stroke-width="0"/>
  </g>
  <path d="M1228.4,394c15.2,15.2,15.2,39.9,0,55.2-15.2,15.2-39.9,15.2-55.1,0-15.2-15.2-15.2-39.9,0-55.2,15.2-15.2,39.9-15.2,55.1,0Z" fill="none" stroke="#000" stroke-width="2"/>
  <g>
    <path d="M1196.9,429.1h-9.1c-.4,0-1.5,0-1.5-1.2s1.1-1.2,1.5-1.2h2.5v-16.5c-.9.3-2,.4-3,.4s-1.5,0-1.5-1.2.8-1.2,1.4-1.2c3.2,0,4.4-1.2,5-1.8.4-.4.5-.4,1.2-.4,1.4,0,1.4.9,1.4,1.5v19.1h2.2c.4,0,1.5,0,1.5,1.2s-1.2,1.2-1.5,1.2Z" fill="#000" stroke-width="0"/>
    <path d="M1215.9,424.2h-1.3v3.4c0,1.1-.3,1.5-1.5,1.5h-.9c-1.3,0-1.5-.5-1.5-1.5v-3.4h-7.2c-1.3,0-1.5-.5-1.5-1.5v-.8c0-.6,0-.7.3-1.2l7.1-13.1c.4-.7.9-.7,1.5-.7h2.3c1.2,0,1.5.4,1.5,1.5v12.8h1.3c1.1,0,1.5.3,1.5,1.5s-.5,1.5-1.5,1.5ZM1210.8,410.3h0c-.2.5-.4,1.5-5.6,10.9h5.6v-10.9Z" fill="#000" stroke-width="0"/>
  </g>
  <ellipse cx="722.8" cy="437.6" rx="35" ry="35" fill="none" stroke="#000" stroke-width="2"/>
  <g>
    <path d="M718.8,450.1h-9.1c-.4,0-1.5,0-1.5-1.2s1.1-1.2,1.5-1.2h2.5v-16.5c-.9.3-2,.4-3,.4s-1.5,0-1.5-1.2.8-1.2,1.4-1.2c3.2,0,4.4-1.2,5-1.8.4-.4.5-.4,1.2-.4,1.4,0,1.4.9,1.4,1.5v19.1h2.2c.4,0,1.5,0,1.5,1.2s-1.2,1.2-1.5,1.2Z" fill="#000" stroke-width="0"/>
    <path d="M737.1,450.1h-11c-1.2,0-1.5-.4-1.5-1.5v-.3c0-.5,0-.6.3-.9l6.1-6.5c1.9-2,3.1-4.2,3.1-6.2s-1-4.2-3.5-4.2-3.1,1.3-3.8,3.6c0,.4-.2.6-.4.6s-.3-.1-.5-.4l-1.6-2c.6-2.1,2-3.3,2.3-3.5,1.5-1.2,3.4-1.4,4.5-1.4,4.7,0,7.5,3.5,7.5,7.4s-1.8,4.5-3.5,6.3c-.5.4-1.7,1.4-2.2,1.9l-4.2,4h7.4c.6,0,1.7,0,1.9,0,.7.3.7.9.7,1.4v.4c0,1.1-.3,1.5-1.5,1.5Z" fill="#000" stroke-width="0"/>
  </g>
  <ellipse cx="827.5" cy="217.1" rx="35" ry="35" fill="none" stroke="#000" stroke-width="2"/>
  <g>
    <path d="M823.5,229.6h-9.1c-.4,0-1.5,0-1.5-1.2s1.1-1.2,1.5-1.2h2.5v-16.5c-.9.3-2,.4-3,.4s-1.5,0-1.5-1.2.8-1.2,1.4-1.2c3.2,0,4.4-1.2,5-1.8.4-.4.5-.4,1.2-.4,1.4,0,1.4.9,1.4,1.5v19.1h2.2c.4,0,1.5,0,1.5,1.2s-1.2,1.2-1.5,1.2Z" fill="#000" stroke-width="0"/>
    <path d="M835.9,230.3c-4.2,0-6.9-2.6-6.9-3s.4-2.2.4-2.2c0,0,0-.4.4-.4s.2,0,.4.3c2.1,2,4.5,2.2,5.5,2.2,2.9,0,3.1-2.1,3.1-4.3s-.4-4.3-3.3-4.3h-1.4c-.8,0-.9,0-.9-.9v-.6c0-.5,0-.7.2-.8,0,0,.7,0,1.1-.1,1,0,1.8-.1,2.5-1,1-1.2,1-2.8,1-3.2,0-1.6-.3-2.6-2.3-2.6s-2.7,0-4.3,2.3c-.2.2-.2.4-.4.4,0,0-.2,0-.5-.4l-.9-1.3s-.2-.3-.2-.5,2.1-3.4,6.5-3.4,6.7.4,6.7,5.5-.9,3.9-3.5,5.3c2.9.7,4.4,2.7,4.4,5.6,0,4.3-2.2,7.2-7.7,7.2Z" fill="#000" stroke-width="0"/>
  </g>
  <polyline points="384.2 744.4 385.7 741.8 563.2 441.6" fill="none" stroke="#729bb7" stroke-width="6"/>
  <polygon points="375.4 735.7 373.5 762.4 396 747.9 375.4 735.7" fill="#729bb7" stroke-width="0"/>
  <path d="M628.2,109.7l-.7,2.9c-26,91.3-107.9,170-245.5,236" fill="none" stroke="#729bb7" stroke-width="6"/>
  <polygon points="639.2 115.4 632.9 89.3 615.8 110 639.2 115.4" fill="#729bb7" stroke-width="0"/>
  <path d="M325.3,752.8l-.7-2.9c-47-196.7-53.8-395.2-20.2-595.3" fill="none" stroke="#a36a74" stroke-width="6"/>
  <line x1="313.7" y1="755.8" x2="337" y2="750.1" fill="none" stroke="#a36a74" stroke-miterlimit="10" stroke-width="6"/>
  <path d="M972.7,98.5l2.8,1c74.4,26.8,139.5,63.2,195.4,109.2" fill="none" stroke="#a36a74" stroke-width="6"/>
  <line x1="976.6" y1="87.1" x2="968.5" y2="109.7" fill="none" stroke="#a36a74" stroke-miterlimit="10" stroke-width="6"/>
  <path d="M384.6,744.6l1.4-2.6c69.6-135.1,65-249.5-13.6-343.3" fill="none" stroke="#729bb7" stroke-width="6"/>
  <polygon points="375.4 736.3 374.6 763.1 396.5 747.7 375.4 736.3" fill="#729bb7" stroke-width="0"/>
  <path d="M263,790.3l-2.8-1.1c-83.6-37.8-136.3-101.4-157.9-190.6" fill="none" stroke="#729bb7" stroke-width="6"/>
  <polygon points="255.7 800.3 282.4 798.3 264.8 778.1 255.7 800.3" fill="#729bb7" stroke-width="0"/>
  <path d="M396.7,780.4l2.5-1.6c236-155.1,351.3-259.3,345.8-312.7" fill="none" stroke="#a36a74" stroke-width="6"/>
  <line x1="389.9" y1="770.5" x2="403.1" y2="790.5" fill="none" stroke="#a36a74" stroke-miterlimit="10" stroke-width="6"/>
  <path d="M396.1,779.4l2.5-1.7c361.4-240.8,615.6-360.7,762.5-359.8" fill="none" stroke="#a36a74" stroke-width="6"/>
  <line x1="389.2" y1="769.5" x2="402.5" y2="789.5" fill="none" stroke="#a36a74" stroke-miterlimit="10" stroke-width="6"/>
  <path d="M601,737.3l-1.3-2.7c-59.1-126.8-71.6-224.7-37.7-293.7" fill="none" stroke="#729bb7" stroke-width="6"/>
  <polygon points="588.9 739.8 610.1 756.3 610.6 729.4 588.9 739.8" fill="#729bb7" stroke-width="0"/>
  <path d="M600.3,737.7l-1.4-2.6c-79.7-144.5-155.3-256.6-226.7-336.2" fill="none" stroke="#729bb7" stroke-width="6"/>
  <polygon points="588.3 740.8 610.4 756.1 609.4 729.3 588.3 740.8" fill="#729bb7" stroke-width="0"/>
  <path d="M691.4,758.4l1.6-2.5c77.5-121.9,94.7-218.5,51.6-289.7" fill="none" stroke="#a36a74" stroke-width="6"/>
  <line x1="681.2" y1="752.1" x2="701.4" y2="765.1" fill="none" stroke="#a36a74" stroke-miterlimit="10" stroke-width="6"/>
  <path d="M689.3,757l1.7-2.5c156.6-228.1,313.3-340.2,470-336.4" fill="none" stroke="#a36a74" stroke-width="6"/>
  <line x1="679.3" y1="750.4" x2="699.1" y2="763.9" fill="none" stroke="#a36a74" stroke-miterlimit="10" stroke-width="6"/>
  <path d="M875.9,786.3l-2.4-1.8c-220.5-162.7-324-277-310.5-343.1" fill="none" stroke="#729bb7" stroke-width="6"/>
  <polygon points="866.4 794.3 892.8 798.8 880.6 774.9 866.4 794.3" fill="#729bb7" stroke-width="0"/>
  <path d="M876.2,786l-2.4-1.8c-270.9-200-438.4-328.1-502.5-384.6" fill="none" stroke="#729bb7" stroke-width="6"/>
  <polygon points="866.6 793.9 893.1 798.5 880.9 774.6 866.6 793.9" fill="#729bb7" stroke-width="0"/>
  <path d="M918.3,780.8l-.6-2.9c-15.7-73.5-73.4-177.3-173.2-311.5" fill="none" stroke="#a36a74" stroke-width="6"/>
  <line x1="906.6" y1="783.4" x2="930.1" y2="778.7" fill="none" stroke="#a36a74" stroke-miterlimit="10" stroke-width="6"/>
  <path d="M915.8,781.1l-.4-3c-32.4-237.5,49.4-356.7,245.5-357.8" fill="none" stroke="#a36a74" stroke-width="6"/>
  <line x1="904" y1="783" x2="927.7" y2="779.7" fill="none" stroke="#a36a74" stroke-miterlimit="10" stroke-width="6"/>
  <path d="M131.7,223l3-.5c312.8-50.4,463.5.4,452.1,152.4" fill="none" stroke="#729bb7" stroke-width="6"/>
  <polygon points="132.6 210.7 110.9 226.4 136.6 234.3 132.6 210.7" fill="#729bb7" stroke-width="0"/>
  <path d="M98.8,272.4l2,2.2c137.4,152.3,150.4,242.6,38.9,271" fill="none" stroke="#a36a74" stroke-width="6"/>
  <line x1="107.6" y1="264.2" x2="89.8" y2="280.3" fill="none" stroke="#a36a74" stroke-miterlimit="10" stroke-width="6"/>
  <path d="M98.3,272.9l2.1,2.1c98,94.2,165.9,54,203.6-120.5" fill="none" stroke="#a36a74" stroke-width="6"/>
  <line x1="106.5" y1="264.2" x2="89.8" y2="281.3" fill="none" stroke="#a36a74" stroke-miterlimit="10" stroke-width="6"/>
  <path d="M816,350.6l-2.8-1.1c-128.2-50.4-203.3-41.8-225.3,25.7" fill="none" stroke="#729bb7" stroke-width="6"/>
  <polygon points="808.7 360.5 835.4 358.5 817.8 338.3 808.7 360.5" fill="#729bb7" stroke-width="0"/>
  <path d="M845.4,337.6l-2.3-1.9c-180-152.7-342.3-228.5-486.9-227.2" fill="none" stroke="#a36a74" stroke-width="6"/>
  <line x1="837.8" y1="346.9" x2="853.3" y2="328.6" fill="none" stroke="#a36a74" stroke-miterlimit="10" stroke-width="6"/>
  <path d="M815.8,351l-2.8-1.1c-151.1-56.9-294.7-57.3-431-1.3" fill="none" stroke="#729bb7" stroke-width="6"/>
  <polygon points="808.6 361 835.4 358.7 817.4 338.7 808.6 361" fill="#729bb7" stroke-width="0"/>
  <polyline points="986.9 399.8 989.9 400.1 1161.1 417.6" fill="none" stroke="#a36a74" stroke-width="6"/>
  <line x1="987.9" y1="387.8" x2="985.5" y2="411.7" fill="none" stroke="#a36a74" stroke-miterlimit="10" stroke-width="6"/>
  <path d="M884.6,112.1l-2.7,1.4c-161.9,81.7-328.5,160.3-499.7,235.7" fill="none" stroke="#729bb7" stroke-width="6"/>
  <polygon points="887.4 124.2 903.4 102.6 876.5 102.8 887.4 124.2" fill="#729bb7" stroke-width="0"/>
  <path d="M673.4,66.7l2.8,1.1c169.9,64.7,335.2,173.4,495.9,326.1" fill="none" stroke="#a36a74" stroke-width="6"/>
  <line x1="677.5" y1="55.4" x2="669" y2="77.8" fill="none" stroke="#a36a74" stroke-miterlimit="10" stroke-width="6"/>
  <path d="M546,393.8l-2.7-1.3c-160.7-78.9-240.5-158.3-239.4-238.1" fill="none" stroke="#a36a74" stroke-width="6"/>
  <line x1="540.9" y1="404.7" x2="551.5" y2="383.2" fill="none" stroke="#a36a74" stroke-miterlimit="10" stroke-width="6"/>
  <path d="M545.1,425.2l-2.8,1.1c-128.2,50.2-262.5,89.5-402.9,118.1" fill="none" stroke="#a36a74" stroke-width="6"/>
  <line x1="549.7" y1="436.3" x2="540.9" y2="414" fill="none" stroke="#a36a74" stroke-miterlimit="10" stroke-width="6"/>
  <path d="M373.6,133.1l2.8,1.1c154.6,61.7,225.6,142.1,212.9,241.2" fill="none" stroke="#729bb7" stroke-width="6"/>
  <polygon points="380.7 123 354 125.6 372.1 145.4 380.7 123" fill="#729bb7" stroke-width="0"/>
  <polyline points="349.3 140.6 351.7 142.5 694.6 415.2" fill="none" stroke="#a36a74" stroke-width="6"/>
  <line x1="356.6" y1="131.1" x2="341.7" y2="149.9" fill="none" stroke="#a36a74" stroke-miterlimit="10" stroke-width="6"/>
  <path d="M361.6,428.8l1,2.8c50.8,133.5,117.5,136.7,200.1,9.7" fill="none" stroke="#729bb7" stroke-width="6"/>
  <polygon points="373.9 427.6 354.6 409 351.3 435.6 373.9 427.6" fill="#729bb7" stroke-width="0"/>
  <path d="M325.1,322.7l-1-2.8c-19.2-58.4-25.8-113.5-19.9-165.4" fill="none" stroke="#a36a74" stroke-width="6"/>
  <line x1="313.7" y1="326.7" x2="336.5" y2="319.1" fill="none" stroke="#a36a74" stroke-miterlimit="10" stroke-width="6"/>
  <path d="M319.9,408.6l-1.6,2.6c-42.1,67.6-101.7,111.9-179,132.8" fill="none" stroke="#a36a74" stroke-width="6"/>
  <line x1="330.3" y1="414.7" x2="309.8" y2="402.2" fill="none" stroke="#a36a74" stroke-miterlimit="10" stroke-width="6"/>
  <path d="M151.7,587.8l2.6,1.4c162.2,83.4,298.6,34.2,409.2-147.5" fill="none" stroke="#729bb7" stroke-width="6"/>
  <polygon points="160 578.7 133.2 577.8 148.6 599.8 160 578.7" fill="#729bb7" stroke-width="0"/>
  <path d="M125.8,515.4l1.9-2.3c93.2-117.2,152.3-236.7,177.2-358.4" fill="none" stroke="#a36a74" stroke-width="6"/>
  <line x1="116.3" y1="508" x2="135.1" y2="523" fill="none" stroke="#a36a74" stroke-miterlimit="10" stroke-width="6"/>
  <path d="M1160.6,219.5l-2.8-1c-221.7-81.7-488.8-118-801.5-108.8" fill="none" stroke="#a36a74" stroke-width="6"/>
  <line x1="1156.7" y1="230.8" x2="1165" y2="208.3" fill="none" stroke="#a36a74" stroke-miterlimit="10" stroke-width="6"/>
  <path d="M771.9,229.8l-2.9.7c-157.5,37.1-286.4,76.6-386.7,118.6" fill="none" stroke="#729bb7" stroke-width="6"/>
  <polygon points="771.7 242.2 792.3 225 766.2 218.8 771.7 242.2" fill="#729bb7" stroke-width="0"/>
  <path d="M860.4,195.8l2.6-1.5c114.6-67.2,217.4-62.6,308.7,13.6" fill="none" stroke="#a36a74" stroke-width="6"/>
  <line x1="854.1" y1="185.6" x2="866.4" y2="206.2" fill="none" stroke="#a36a74" stroke-miterlimit="10" stroke-width="6"/>
  <polyline points="627.8 109.8 627.4 112.8 587 375" fill="none" stroke="#729bb7" stroke-width="6"/>
  <polygon points="639.2 114.6 631 89 615.5 110.9 639.2 114.6" fill="#729bb7" stroke-width="0"/>
  <path d="M599.3,65.9l-2.9.9c-77.2,23.9-157.2,38.2-240.1,42.9" fill="none" stroke="#a36a74" stroke-width="6"/>
  <line x1="603.1" y1="77.3" x2="595.9" y2="54.4" fill="none" stroke="#a36a74" stroke-miterlimit="10" stroke-width="6"/>
  <g>
    <path d="M631.3,885.7v-20h3.6v1.3h-2v17.4h2v1.3h-3.6Z" fill="#53585f" stroke-width="0"/>
    <path d="M636.4,880.7v-1.4c.6-.5,2-1.8,2.5-2.4.4-.4,1.5-1.3,1.9-1.7,1.2-1.1,2.2-2.1,2.2-3.7s-1.3-3-3-3-2.4,1.3-2.9,3l-.9-1.2c.7-2,2-3.2,4.1-3.2s4.5,2.1,4.5,4.3-1.2,2.8-2.1,3.6c-.4.3-1.4,1.1-1.7,1.4l-3.1,2.7h2.3c.2,0,.5,0,.7,0h3.9v1.5h-8.5Z" fill="#53585f" stroke-width="0"/>
    <path d="M655,878.7c-.6,1.3-1.7,2.4-3.7,2.4s-2.7-.5-3.5-2.1c-.8-1.5-.9-3.3-.9-4.8s0-3.4,1-5c1-1.7,2.6-2,3.5-2s2.5.3,3.5,2.1c.9,1.6.9,4,.9,4.9s0,3.1-.8,4.5ZM651.3,868.5c-2.7,0-2.7,3.6-2.7,5.5s0,2.7.4,3.9c.5,1.4,1.5,1.9,2.3,1.9s1.7-.3,2.2-1.8c.5-1.3.5-2.8.5-4.1s0-5.5-2.7-5.5Z" fill="#53585f" stroke-width="0"/>
    <path d="M657.1,885.7v-1.3h2v-17.4h-2v-1.3h3.6v20h-3.6Z" fill="#53585f" stroke-width="0"/>
  </g>
  <g>
    <path d="M891.4,457.3v-20h3.6v1.3h-2v17.4h2v1.3h-3.6Z" fill="#53585f" stroke-width="0"/>
    <path d="M896.5,452.3v-1.4c.6-.5,2-1.8,2.5-2.4.4-.4,1.5-1.3,1.9-1.7,1.2-1.1,2.2-2.1,2.2-3.7s-1.3-3-3-3-2.4,1.3-2.9,3l-.9-1.2c.7-2,2-3.2,4.1-3.2s4.5,2.1,4.5,4.3-1.2,2.8-2.1,3.6c-.4.3-1.4,1.1-1.7,1.4l-3.1,2.7h2.3c.2,0,.5,0,.7,0h3.9v1.5h-8.5Z" fill="#53585f" stroke-width="0"/>
    <path d="M908.1,452.3v-1.3h2.7v-10.2c-1,.4-2,.4-2.8.5v-1.3c1.2,0,2.8-.1,4.1-1.3h.4v12.3h2.7v1.3h-7.1Z" fill="#53585f" stroke-width="0"/>
    <path d="M917.2,457.3v-1.3h2v-17.4h-2v-1.3h3.6v20h-3.6Z" fill="#53585f" stroke-width="0"/>
  </g>
  <g>
    <path d="M819.1,251.1v-20h3.6v1.3h-2v17.4h2v1.3h-3.6Z" fill="#53585f" stroke-width="0"/>
    <path d="M825.1,246.1v-1.3h2.7v-10.2c-1,.4-2,.4-2.8.5v-1.3c1.2,0,2.8-.1,4.1-1.3h.4v12.3h2.7v1.3h-7.1Z" fill="#53585f" stroke-width="0"/>
    <path d="M834.2,251.1v-1.3h2v-17.4h-2v-1.3h3.6v20h-3.6Z" fill="#53585f" stroke-width="0"/>
  </g>
  <g>
    <path d="M327.3,867.8v-20h3.6v1.3h-2v17.4h2v1.3h-3.6Z" fill="#53585f" stroke-width="0"/>
    <path d="M333.3,862.8v-1.3h2.7v-10.2c-1,.4-2,.4-2.8.5v-1.3c1.2,0,2.8-.1,4.1-1.3h.4v12.3h2.7v1.3h-7.1Z" fill="#53585f" stroke-width="0"/>
    <path d="M347.2,863.2c-1.6,0-3.2-.7-4.3-2l.3-1.3c1,1.3,2.6,2,4,2s2.5-1.2,2.5-2.8-.7-2.8-2.6-2.8h-1.6v-1.3c1.3-.1,1.4-.1,1.5-.1,1.5-.3,2.2-1.6,2.2-2.6s-.9-1.8-2.1-1.8-2.4.4-3.2,2l-.8-1.2c.8-1.2,2.3-2.1,4.1-2.1s3.9,1.4,3.9,3.1-.8,2.6-2.3,3.4c1.6.5,2.9,1.8,2.9,3.4s-1.9,4.1-4.5,4.1Z" fill="#53585f" stroke-width="0"/>
    <path d="M353,867.8v-1.3h2v-17.4h-2v-1.3h3.6v20h-3.6Z" fill="#53585f" stroke-width="0"/>
  </g>
  <g>
    <path d="M912.7,852.6v-20h3.6v1.3h-2v17.4h2v1.3h-3.6Z" fill="#53585f" stroke-width="0"/>
    <path d="M918.7,847.6v-1.3h2.7v-10.2c-1,.4-2,.4-2.8.5v-1.3c1.2,0,2.8-.1,4.1-1.3h.4v12.3h2.7v1.3h-7.1Z" fill="#53585f" stroke-width="0"/>
    <path d="M927.8,852.6v-1.3h2v-17.4h-2v-1.3h3.6v20h-3.6Z" fill="#53585f" stroke-width="0"/>
  </g>
  <g>
    <path d="M54.4,278.2v-20h3.6v1.3h-2v17.4h2v1.3h-3.6Z" fill="#53585f" stroke-width="0"/>
    <path d="M66.8,272.2c-.6.6-1.5,1.4-3.1,1.4s-4.5-1.5-4.5-6.9,2.6-7.1,5.7-7.1,1.1,0,2.2.4v1.3c-1-.4-1.8-.4-2.2-.4-2.2,0-3.6,1.9-3.8,4.6.6-.6,1.6-1.6,3.6-1.6s3.4,2.2,3.4,4.8,0,2.1-1.3,3.5ZM63.9,265.3c-1.8,0-2.6,1.7-2.6,3,0,0,0,.4,0,.5.1.9.4,3.5,2.6,3.5s1.5-.4,2-1.1c.5-.8.5-1.7.5-2.4s0-3.5-2.4-3.5Z" fill="#53585f" stroke-width="0"/>
    <path d="M69.5,278.2v-1.3h2v-17.4h-2v-1.3h3.6v20h-3.6Z" fill="#53585f" stroke-width="0"/>
  </g>
  <g>
    <path d="M926.1,118.4v-20h3.6v1.3h-2v17.4h2v1.3h-3.6Z" fill="#53585f" stroke-width="0"/>
    <path d="M932.1,113.4v-1.3h2.7v-10.2c-1,.4-2,.4-2.8.5v-1.3c1.2,0,2.8-.1,4.1-1.3h.4v12.3h2.7v1.3h-7.1Z" fill="#53585f" stroke-width="0"/>
    <path d="M941.2,118.4v-1.3h2v-17.4h-2v-1.3h3.6v20h-3.6Z" fill="#53585f" stroke-width="0"/>
  </g>
  <g>
    <path d="M572.1,442.8v-20h3.6v1.3h-2v17.4h2v1.3h-3.6Z" fill="#53585f" stroke-width="0"/>
    <path d="M578.1,437.8v-1.3h2.7v-10.2c-1,.4-2,.4-2.8.5v-1.3c1.2,0,2.8-.1,4.1-1.3h.4v12.3h2.7v1.3h-7.1Z" fill="#53585f" stroke-width="0"/>
    <path d="M587.2,442.8v-1.3h2v-17.4h-2v-1.3h3.6v20h-3.6Z" fill="#53585f" stroke-width="0"/>
  </g>
  <g>
    <path d="M303,151v-20h3.6v1.3h-2v17.4h2v1.3h-3.6Z" fill="#53585f" stroke-width="0"/>
    <path d="M315,142.6v3.3h-1.7v-3.3h-5.6v-1.3l5.3-8.5h2v8.5h2.1v1.3h-2.1ZM313.4,133.8c0,1.2-3.4,6.5-4,7.5h4v-7.5Z" fill="#53585f" stroke-width="0"/>
    <path d="M318.1,151v-1.3h2v-17.4h-2v-1.3h3.6v20h-3.6Z" fill="#53585f" stroke-width="0"/>
  </g>
  <g>
    <path d="M332.6,405.8v-20h3.6v1.3h-2v17.4h2v1.3h-3.6Z" fill="#53585f" stroke-width="0"/>
    <path d="M344.5,397.5v3.3h-1.7v-3.3h-5.6v-1.3l5.3-8.5h2v8.5h2.1v1.3h-2.1ZM343,388.6c0,1.2-3.4,6.5-4,7.5h4v-7.5Z" fill="#53585f" stroke-width="0"/>
    <path d="M347.7,405.8v-1.3h2v-17.4h-2v-1.3h3.6v20h-3.6Z" fill="#53585f" stroke-width="0"/>
  </g>
  <g>
    <path d="M86,595.2v-20h3.6v1.3h-2v17.4h2v1.3h-3.6Z" fill="#53585f" stroke-width="0"/>
    <path d="M94.8,590.6c-1.6,0-3.1-.7-4-2l.8-1.2c.7,1.1,2,1.8,3.3,1.8s2.7-.6,2.7-3.2-1.2-3.1-2.1-3.1-1.8.5-2.3,1.6h-1.5v-7.5h7.1v1.4h-5.5v4c.6-.5,1.4-.8,2.2-.8,2.2,0,4,2,4,4.5s-2.1,4.5-4.7,4.5Z" fill="#53585f" stroke-width="0"/>
    <path d="M101.1,595.2v-1.3h2v-17.4h-2v-1.3h3.6v20h-3.6Z" fill="#53585f" stroke-width="0"/>
  </g>
  <g>
    <path d="M1192.5,271.2v-20h3.6v1.3h-2v17.4h2v1.3h-3.6Z" fill="#53585f" stroke-width="0"/>
    <path d="M1197.6,266.2v-1.4c.6-.5,2-1.8,2.5-2.4.4-.4,1.5-1.3,1.9-1.7,1.2-1.1,2.2-2.1,2.2-3.7s-1.3-3-3-3-2.4,1.3-2.9,3l-.9-1.2c.7-2,2-3.2,4.1-3.2s4.5,2.1,4.5,4.3-1.2,2.8-2.1,3.6c-.4.3-1.4,1.1-1.7,1.4l-3.1,2.7h2.3c.2,0,.5,0,.7,0h3.9v1.5h-8.5Z" fill="#53585f" stroke-width="0"/>
    <path d="M1207.7,271.2v-1.3h2v-17.4h-2v-1.3h3.6v20h-3.6Z" fill="#53585f" stroke-width="0"/>
  </g>
  <g>
    <path d="M713.5,471.3v-20h3.6v1.3h-2v17.4h2v1.3h-3.6Z" fill="#53585f" stroke-width="0"/>
    <path d="M719.5,466.3v-1.3h2.7v-10.2c-1,.4-2,.4-2.8.5v-1.3c1.2,0,2.8-.1,4.1-1.3h.4v12.3h2.7v1.3h-7.1Z" fill="#53585f" stroke-width="0"/>
    <path d="M728.6,471.3v-1.3h2v-17.4h-2v-1.3h3.6v20h-3.6Z" fill="#53585f" stroke-width="0"/>
  </g>
  <g>
    <path d="M627.6,86.9v-20h3.6v1.3h-2v17.4h2v1.3h-3.6Z" fill="#53585f" stroke-width="0"/>
    <path d="M633.6,81.8v-1.3h2.7v-10.2c-1,.4-2,.4-2.8.5v-1.3c1.2,0,2.8-.1,4.1-1.3h.4v12.3h2.7v1.3h-7.1Z" fill="#53585f" stroke-width="0"/>
    <path d="M642.8,86.9v-1.3h2v-17.4h-2v-1.3h3.6v20h-3.6Z" fill="#53585f" stroke-width="0"/>
  </g>
  <g>
    <path d="M1192.5,457.3v-20h3.6v1.3h-2v17.4h2v1.3h-3.6Z" fill="#53585f" stroke-width="0"/>
    <path d="M1197.6,452.3v-1.4c.6-.5,2-1.8,2.5-2.4.4-.4,1.5-1.3,1.9-1.7,1.2-1.1,2.2-2.1,2.2-3.7s-1.3-3-3-3-2.4,1.3-2.9,3l-.9-1.2c.7-2,2-3.2,4.1-3.2s4.5,2.1,4.5,4.3-1.2,2.8-2.1,3.6c-.4.3-1.4,1.1-1.7,1.4l-3.1,2.7h2.3c.2,0,.5,0,.7,0h3.9v1.5h-8.5Z" fill="#53585f" stroke-width="0"/>
    <path d="M1207.7,457.3v-1.3h2v-17.4h-2v-1.3h3.6v20h-3.6Z" fill="#53585f" stroke-width="0"/>
  </g>
  <g>
    <path d="M1017.4,744.7h-7.2c-.7,0-2.5,0-2.5,2.6s2,2.6,3.6,2.6h6.1v2.2h-11.3v-2h1.8c-1.3-1.1-1.9-2.5-1.9-3.9,0-3.1,2-3.6,3.9-3.6h7.4v2.2Z" fill="#000" stroke-width="0"/>
    <path d="M1017.6,733.8c0,3.2-2.5,5.9-5.7,5.9s-6-2.6-6-5.9,2.7-5.9,6-5.9,5.7,2.6,5.7,5.9ZM1007.6,733.8c0,1.8,1.2,3.7,4.1,3.7s4.3-1.7,4.3-3.7-1.4-3.7-4.3-3.7-4.1,1.8-4.1,3.7Z" fill="#000" stroke-width="0"/>
    <path d="M1017.4,717h-1.3c.8,1,1.5,2.4,1.5,3.9,0,2.6-2.6,4.5-5.8,4.5s-5.8-2-5.8-4.6.2-2.3,1.3-3.9h-7.3v-2.1h17.3v2.2ZM1009,717c-.8.7-1.3,1.5-1.3,2.5,0,1.7,1,3.8,4.2,3.8s4.1-1.8,4.1-3.5-.7-2.1-1.7-2.8h-5.3Z" fill="#000" stroke-width="0"/>
    <path d="M1011.9,709.8c2.3,0,4.1-1.7,4.1-3.9s-.3-2.6-1.3-4l1.8-.2c.8,1.3,1.2,2.8,1.2,4.2,0,3.3-2.7,5.8-5.9,5.8s-5.8-2.3-5.8-5.4.5-2.7,1.8-3.6c1.4-1,3.1-1.1,4.2-1.1v8.2ZM1007.6,706.4c0,1.2.8,2.7,2.8,3.3v-6.5c-2.3.5-2.8,2.1-2.8,3.2Z" fill="#000" stroke-width="0"/>
    <path d="M1016.8,683.6c.7.9.8,2,.8,3.1,0,2.1-.7,3.6-1.1,4.4l-1.9-.3c.7-1,1.3-2.5,1.3-4.1s0-2.4-1.6-2.4-1.4,1.3-1.7,2.5c-.2,1.3-.4,2.4-1.3,3.2-.3.3-1,1-2.1,1-3.3,0-3.3-3.8-3.3-4.4,0-.9,0-2.2.8-3.8l1.8.3c-.6,1.2-1,2.3-1,3.8s0,2.2,1.4,2.2,1.3-1.2,1.6-2.6c.2-1.2.4-2.1,1.2-3,1-1,1.9-1.1,2.4-1.1.8,0,1.9.3,2.6,1.2Z" fill="#000" stroke-width="0"/>
    <path d="M1003.4,679.9h-2.5v-2.5h2.5v2.5ZM1017.4,679.7h-11.1v-2.1h11.1v2.1Z" fill="#000" stroke-width="0"/>
    <path d="M1017.4,674.7h-1.1l-8.4-6.9v1.9c0,.3,0,.6,0,.9v3.7h-1.6v-9.5h1l8.4,6.9v-2.2c0-.3,0-.6,0-.9v-3.9h1.7v9.9Z" fill="#000" stroke-width="0"/>
    <path d="M1011.9,661.1c2.3,0,4.1-1.7,4.1-3.9s-.3-2.6-1.3-4l1.8-.2c.8,1.3,1.2,2.8,1.2,4.2,0,3.3-2.7,5.8-5.9,5.8s-5.8-2.3-5.8-5.4.5-2.7,1.8-3.6c1.4-1,3.1-1.1,4.2-1.1v8.2ZM1007.6,657.7c0,1.2.8,2.7,2.8,3.3v-6.5c-2.3.5-2.8,2.1-2.8,3.2Z" fill="#000" stroke-width="0"/>
  </g>
  <g>
    <path d="M1012.8,801.3v-7.2c0-.7,0-2.5-2.6-2.5s-2.6,2-2.6,3.6v6.1h-2.2v-11.3h2v1.8c1.1-1.3,2.5-1.9,3.9-1.9,3.1,0,3.6,2,3.6,3.9v7.4h-2.2Z" fill="#000" stroke-width="0"/>
    <path d="M1026.6,801.3v-1.1c-1.5,1.2-3.7,1.4-4.7,1.4-1.8,0-2.7-.8-2.7-3v-8.4h2.2v8.2c0,1.1.2,1.6,2,1.6s3.1-.6,3.1-2.6v-7.2h2.2v11.1h-2.1Z" fill="#000" stroke-width="0"/>
    <path d="M1047.6,801.3v-7.2c0-.7,0-2.5-2.6-2.5s-2.6,2-2.6,3.6v6.1h-2.2v-7.2c0-.7,0-2.5-2.6-2.5s-2.6,2-2.6,3.6v6.1h-2.2v-11.3h2v1.8c1.1-1.3,2.5-1.9,3.9-1.9,2.5,0,3.1,1.3,3.4,2,.6-.8,1.9-2,4-2,3.1,0,3.6,2,3.6,3.9v7.4h-2.2Z" fill="#000" stroke-width="0"/>
    <path d="M1059.8,801.6c-1.8,0-3-1-3.6-1.4v1.2h-2.2v-17.3h2.1v7.4c1.2-.9,2.8-1.4,4.3-1.4,2.5,0,4.2,2.8,4.2,5.8s-2.2,5.8-4.9,5.8ZM1059,791.6c-.8,0-1.5.3-1.9.5-.9.6-.9.9-.9,1.3v4.9c.7,1.1,1.6,1.5,2.5,1.5,1.7,0,3.8-1.1,3.8-4.2s-1.9-4.1-3.5-4.1Z" fill="#000" stroke-width="0"/>
    <path d="M1069.2,795.8c0,2.3,1.7,4.1,3.9,4.1s2.6-.3,4-1.3v1.8c-1.1.8-2.6,1.2-4.1,1.2-3.3,0-5.8-2.7-5.8-5.9s2.3-5.8,5.4-5.8,2.7.5,3.6,1.8c1,1.4,1.1,3.1,1.1,4.2h-8.2ZM1072.6,791.5c-1.2,0-2.7.8-3.3,2.8h6.5c-.5-2.3-2.1-2.8-3.2-2.8Z" fill="#000" stroke-width="0"/>
    <path d="M1082.4,796v5.3h-2.1v-11.3h1.9v2.3c1-1.3,2.5-2.3,4.6-2.4v1.8c-2.2,0-4.4,1.5-4.4,4.2Z" fill="#000" stroke-width="0"/>
    <path d="M1102.7,801.6c-3.2,0-5.9-2.5-5.9-5.7s2.6-6,5.9-6,5.9,2.7,5.9,6-2.6,5.7-5.9,5.7ZM1102.7,791.5c-1.8,0-3.7,1.2-3.7,4.1s1.7,4.3,3.7,4.3,3.7-1.4,3.7-4.3-1.8-4.1-3.7-4.1Z" fill="#000" stroke-width="0"/>
    <path d="M1116.4,785.4c-.8,0-2.4.2-2.4,2v2.9h2.9v1.6h-2.8v9.5h-2.1v-9.5h-1.9v-1.6h1.9v-2.2c0-2.5,1.9-4.3,4.4-4.3s1.4,0,2.1.2v1.8c-.9-.3-1.6-.4-2.1-.4Z" fill="#000" stroke-width="0"/>
  </g>
  <g>
    <path d="M1008.3,823.8c-1.8,0-2.2-1.8-2.2-3.4v-6.3h-2.2v-1.6h2.3v-3.2h1.9v3.2h3.7v1.6h-3.7v5.9c0,1.2.3,2.2,1.3,2.2s1.6-.2,2.4-.8l.4,1.6c-.7.3-2.1.9-3.9.9Z" fill="#000" stroke-width="0"/>
    <path d="M1021.7,823.5v-1c-1.3,1-3.3,1.2-4.4,1.2-2.2,0-3-1.9-3-3.2,0-2.3,3.7-3.1,7.3-3.2v-1c0-1.9-1.1-2.7-2.2-2.7-2,0-3.2.8-4,1.3v-1.8c1.2-.8,2.5-1.1,4-1.1,2.5,0,4.4,1.7,4.4,4.3v7.2h-2.1ZM1021.7,818.7c-1.1,0-5.3.2-5.3,1.8s1,1.6,2.4,1.6,1.2,0,2-.5c.9-.5.9-1.2.9-1.7v-1.2Z" fill="#000" stroke-width="0"/>
    <path d="M1035.7,823.5l-3.9-4.7-3.8,4.7h-2.2l5.1-5.7-5-5.4h2.2l3.6,4.1,3.5-4.1h2.2l-4.8,5.4,5.3,5.7h-2.2Z" fill="#000" stroke-width="0"/>
    <path d="M1046.7,823.5v-1c-1.3,1-3.3,1.2-4.4,1.2-2.2,0-3-1.9-3-3.2,0-2.3,3.6-3.1,7.3-3.2v-1c0-1.9-1.1-2.7-2.2-2.7-2,0-3.2.8-4,1.3v-1.8c1.2-.8,2.5-1.1,4-1.1,2.5,0,4.4,1.7,4.4,4.3v7.2h-2.1ZM1046.7,818.7c-1.1,0-5.3.2-5.3,1.8s1,1.6,2.4,1.6,1.2,0,2-.5c.9-.5.9-1.2.9-1.7v-1.2Z" fill="#000" stroke-width="0"/>
    <path d="M1061.4,809.5v-2.5h2.5v2.5h-2.5ZM1061.6,823.5v-11.1h2.1v11.1h-2.1Z" fill="#000" stroke-width="0"/>
    <path d="M1075.3,823.5v-7.2c0-.7,0-2.5-2.6-2.5s-2.6,2-2.6,3.6v6.1h-2.2v-11.3h2v1.8c1.1-1.3,2.5-1.9,3.9-1.9,3.1,0,3.6,2,3.6,3.9v7.4h-2.2Z" fill="#000" stroke-width="0"/>
    <path d="M1105.3,823.5v-7.2c0-.7,0-2.5-2.6-2.5s-2.6,2-2.6,3.6v6.1h-2.2v-7.2c0-.7,0-2.5-2.6-2.5s-2.6,2-2.6,3.6v6.1h-2.2v-11.3h2v1.8c1.1-1.3,2.5-1.9,3.9-1.9,2.5,0,3.1,1.3,3.4,2,.6-.8,1.9-2,4-2,3.1,0,3.6,2,3.6,3.9v7.4h-2.2Z" fill="#000" stroke-width="0"/>
    <path d="M1116.2,823.8c-3.2,0-5.9-2.5-5.9-5.7s2.6-6,5.9-6,5.9,2.7,5.9,6-2.6,5.7-5.9,5.7ZM1116.2,813.7c-1.8,0-3.7,1.2-3.7,4.1s1.7,4.3,3.7,4.3,3.7-1.4,3.7-4.3-1.8-4.1-3.7-4.1Z" fill="#000" stroke-width="0"/>
    <path d="M1133,823.5v-1.3c-.9.8-2.4,1.5-3.9,1.5-2.6,0-4.5-2.6-4.5-5.8s2-5.8,4.6-5.8,2.3.2,3.9,1.3v-7.3h2.1v17.3h-2.2ZM1133,815.1c-.6-.8-1.5-1.3-2.5-1.3-1.7,0-3.8,1-3.8,4.2s1.8,4.1,3.5,4.1,2.1-.7,2.8-1.7v-5.3Z" fill="#000" stroke-width="0"/>
    <path d="M1146.8,823.5v-1.1c-1.5,1.2-3.7,1.4-4.7,1.4-1.8,0-2.7-.8-2.7-3v-8.4h2.2v8.2c0,1.1.2,1.6,2,1.6s3.1-.6,3.1-2.6v-7.2h2.2v11.1h-2.1Z" fill="#000" stroke-width="0"/>
    <path d="M1153.1,823.5v-17.3h2.1v17.3h-2.1Z" fill="#000" stroke-width="0"/>
    <path d="M1160.1,818c0,2.3,1.7,4.1,3.9,4.1s2.6-.3,4-1.3l.2,1.8c-1.3.8-2.8,1.2-4.2,1.2-3.3,0-5.8-2.7-5.8-5.9s2.3-5.8,5.4-5.8,2.7.5,3.6,1.8c1,1.4,1.1,3.1,1.1,4.2h-8.2ZM1163.6,813.7c-1.2,0-2.7.8-3.3,2.8h6.5c-.5-2.3-2.1-2.8-3.2-2.8Z" fill="#000" stroke-width="0"/>
  </g>
  <line x1="1032.4" y1="758.8" x2="1032.4" y2="744.7" fill="none" stroke="#000" stroke-width="2"/>
  <line x1="1056.1" y1="758.8" x2="1056.1" y2="744.7" fill="none" stroke="#000" stroke-width="2"/>
  <line x1="1083.9" y1="758.8" x2="1083.9" y2="744.7" fill="none" stroke="#000" stroke-width="2"/>
  <line x1="1111.7" y1="758.8" x2="1111.7" y2="744.7" fill="none" stroke="#000" stroke-width="2"/>
  <line x1="1139.5" y1="758.8" x2="1139.5" y2="744.7" fill="none" stroke="#000" stroke-width="2"/>
  <path d="M1032.2,776.4v-1.3h2.7v-10.2c-1,.4-2,.4-2.8.5v-1.3c1.2,0,2.8-.1,4.1-1.3h.4v12.3h2.7v1.3h-7.1Z" fill="#000" stroke-width="0"/>
  <rect x="1022.9" y="746.3" width="20.5" height="43.7" fill="none" stroke-width="0"/>
  <path d="M1056,776.8c-1.6,0-3.1-.7-4-2l.8-1.2c.7,1.1,2,1.8,3.3,1.8s2.7-.6,2.7-3.2-1.2-3.1-2.1-3.1-1.8.5-2.3,1.6h-1.5v-7.5h7.1v1.4h-5.5v4c.6-.5,1.4-.8,2.2-.8,2.2,0,4,2,4,4.5s-2.1,4.5-4.7,4.5Z" fill="#000" stroke-width="0"/>
  <rect x="1043.8" y="746.3" width="20.5" height="43.7" fill="none" stroke-width="0"/>
  <g>
    <path d="M1075.1,776.4v-1.3h2.7v-10.2c-1,.4-2,.4-2.8.5v-1.3c1.2,0,2.8-.1,4.1-1.3h.4v12.3h2.7v1.3h-7.1Z" fill="#000" stroke-width="0"/>
    <path d="M1092.7,774.4c-.6,1.3-1.7,2.4-3.7,2.4s-2.7-.5-3.5-2.1c-.8-1.5-.9-3.3-.9-4.8s0-3.4,1-5c1-1.7,2.6-2,3.5-2s2.5.3,3.5,2.1c.9,1.6.9,4,.9,4.9s0,3.1-.8,4.5ZM1089,764.2c-2.7,0-2.7,3.6-2.7,5.5s0,2.7.4,3.9c.5,1.4,1.5,1.9,2.3,1.9s1.7-.3,2.2-1.8c.5-1.3.5-2.8.5-4.1s0-5.5-2.7-5.5Z" fill="#000" stroke-width="0"/>
  </g>
  <g>
    <path d="M1103.9,776.4v-1.3h2.7v-10.2c-1,.4-2,.4-2.8.5v-1.3c1.2,0,2.8-.1,4.1-1.3h.4v12.3h2.7v1.3h-7.1Z" fill="#000" stroke-width="0"/>
    <path d="M1117.4,776.8c-1.6,0-3.1-.7-4-2l.8-1.2c.7,1.1,2,1.8,3.3,1.8s2.7-.6,2.7-3.2-1.2-3.1-2.1-3.1-1.8.5-2.3,1.6h-1.5v-7.5h7.1v1.4h-5.5v4c.6-.5,1.4-.8,2.2-.8,2.2,0,4,2,4,4.5s-2.1,4.5-4.7,4.5Z" fill="#000" stroke-width="0"/>
  </g>
  <g>
    <path d="M1130.9,776.4v-1.4c.6-.5,2-1.8,2.5-2.4.4-.4,1.5-1.3,1.9-1.7,1.2-1.1,2.2-2.1,2.2-3.7s-1.3-3-3-3-2.4,1.3-2.9,3l-.9-1.2c.7-2,2-3.2,4.1-3.2s4.5,2.1,4.5,4.3-1.2,2.8-2.1,3.6c-.4.3-1.4,1.1-1.7,1.4l-3.1,2.7h2.3c.2,0,.5,0,.7,0h3.9v1.5h-8.5Z" fill="#000" stroke-width="0"/>
    <path d="M1149.5,774.4c-.6,1.3-1.7,2.4-3.7,2.4s-2.7-.5-3.5-2.1c-.8-1.5-.9-3.3-.9-4.8s0-3.4,1-5c1-1.7,2.6-2,3.5-2s2.5.3,3.5,2.1c.9,1.6.9,4,.9,4.9s0,3.1-.8,4.5ZM1145.8,764.2c-2.7,0-2.7,3.6-2.7,5.5s0,2.7.4,3.9c.5,1.4,1.5,1.9,2.3,1.9s1.7-.3,2.2-1.8c.5-1.3.5-2.8.5-4.1s0-5.5-2.7-5.5Z" fill="#000" stroke-width="0"/>
  </g>
  <path d="M1031.7,682l110.2-85v155h-110.2v-70Z" fill="#fff" stroke-width="0"/>
  <path d="M1031.7,682l110.2-85v155h-110.2v-70Z" fill="none" stroke="#000" stroke-width="3"/>
  <path d="M1255.1,645.1c15.2,15.2,15.2,39.9,0,55.2-15.2,15.2-39.9,15.2-55.1,0-15.2-15.2-15.2-39.9,0-55.2,15.2-15.2,39.9-15.2,55.1,0Z" fill="#fff" stroke-width="0"/>
  <path d="M1255.1,645.1c15.2,15.2,15.2,39.9,0,55.2-15.2,15.2-39.9,15.2-55.1,0-15.2-15.2-15.2-39.9,0-55.2,15.2-15.2,39.9-15.2,55.1,0Z" fill="none" stroke="#000" stroke-width="2"/>
  <g>
    <path d="M1206.3,675.9h-.9c-.9,0-1.1-.3-1.1-1.1v-13.8c0-.9.3-1.1,1.1-1.1h.9c.9,0,1.1.4,1.1,1.1v13.8c0,.8-.2,1.1-1.1,1.1Z" fill="#000" stroke-width="0"/>
    <path d="M1218.7,675.9h-.9c-.9,0-1.1-.4-1.1-1.1v-.5c-1.1,1.6-2.8,1.8-3.6,1.8-2,0-3.3-1.7-3.3-3.3,0-3.4,6-3.4,6.8-3.4v-.8c0-1.4-.4-2.1-1.6-2.1s-2.6.5-3.6,1.5c0,0-.1.1-.3.1-.2,0-.3-.1-.3-.3,0-.2-.2-1.5-.2-1.7,0-.3.1-.3.6-.5,1.5-.6,2.7-.7,3.8-.7s4.6,0,4.6,3.7v6.2c0,.8-.2,1.1-1.1,1.1ZM1216.6,670.4c-.6,0-3.8.2-3.8,2.4s.6,1.7,1.6,1.7,2.3,0,2.3-2.1v-2Z" fill="#000" stroke-width="0"/>
    <path d="M1228.1,676.1c-.4,0-1.5,0-2.6-1.1,0,.9-.7.9-1.1.9h-.9c-.9,0-1.1-.3-1.1-1.1v-13.8c0-.9.3-1.1,1.1-1.1h.9c.9,0,1.1.4,1.1,1.1v5.4c.2-.2,1.4-1.3,3.2-1.3,4.3,0,4.3,4.4,4.3,5.5s0,5.6-4.9,5.6ZM1227.5,666.8c-1.1,0-1.7.5-2,.8v6c.3.3.8.9,1.8.9,2.6,0,2.6-2.2,2.6-3.9s0-3.8-2.3-3.8Z" fill="#000" stroke-width="0"/>
    <path d="M1244.5,671h-6.3c0,1.5.3,3.5,2.9,3.5s2.1-.2,3.5-1.3c.3-.2.3-.2.4-.2.2,0,.2,0,.3.7,0,.2,0,.9,0,1,0,.3-.2.3-.7.6-1.5.8-2.8.9-3.7.9-3.6,0-5.8-1.8-5.8-5.6s1.8-5.6,5.5-5.6,4.8,2,4.8,4.9-.6,1.1-1.1,1.1ZM1240.8,666.6c-2,0-2.5,1.7-2.5,3.1h4.8c0-1.8-.4-3.1-2.3-3.1Z" fill="#000" stroke-width="0"/>
    <path d="M1249.7,675.9h-.9c-.9,0-1.1-.3-1.1-1.1v-13.8c0-.9.3-1.1,1.1-1.1h.9c.9,0,1.1.4,1.1,1.1v13.8c0,.8-.2,1.1-1.1,1.1Z" fill="#000" stroke-width="0"/>
  </g>
  <rect x="1188.6" y="633.7" width="77.9" height="78" fill="none" stroke-width="0"/>
  <path d="M1215.6,708.3v-20h3.6v1.3h-2v17.4h2v1.3h-3.6Z" fill="#53585f" stroke-width="0"/>
  <path d="M1233.8,701.2h-4.3l-1.5,5.2c0,.2-.1.5-.4.5s-.4-.2-.4-.4,0-.2,0-.3l1.4-4.9h-3.5l-1.5,5.2c0,.2-.1.5-.4.5s-.4-.2-.4-.4,0-.2,0-.3l1.4-4.9h-3c-.3,0-.6,0-.6-.4s.4-.4.6-.4h3.2l.9-3.1h-4.1c-.3,0-.6,0-.6-.4s.4-.4.6-.4h4.3l1.5-5.2c0-.2.1-.5.4-.5s.4.2.4.4,0,.2,0,.3l-1.4,4.9h3.5l1.5-5.2c0-.2.1-.5.4-.5s.4.2.4.4,0,.2,0,.3l-1.4,4.9h3c.3,0,.6,0,.6.4s-.4.4-.6.4h-3.2l-.9,3.1h4.1c.3,0,.6,0,.6.4s-.4.4-.6.4ZM1226.3,697.3l-.9,3.1h3.5l.9-3.1h-3.5Z" fill="#53585f" stroke-width="0"/>
  <path d="M1236,708.3v-1.3h2v-17.4h-2v-1.3h3.6v20h-3.6Z" fill="#53585f" stroke-width="0"/>
  <polyline points="1199.4 566.8 1196.4 566.8 1122.7 566.8" fill="none" stroke="#a36a74" stroke-width="6"/>
  <line x1="1199.6" y1="578.8" x2="1199.6" y2="554.8" fill="none" stroke="#a36a74" stroke-miterlimit="10" stroke-width="6"/>
  <rect x="1110.7" y="524.8" width="118.9" height="84" fill="none" stroke-width="0"/>
  <polyline points="1181.5 528.5 1178.5 528.5 1122.8 528.6" fill="none" stroke="#729bb7" stroke-width="6"/>
  <polygon points="1178.5 540.5 1202.5 528.5 1178.5 516.5 1178.5 540.5" fill="#729bb7" stroke-width="0"/>
  <rect x="1110.8" y="516.5" width="91.8" height="24" fill="none" stroke-width="0"/>
  <g>
    <path d="M1016.4,539.4c-.8,0-2.3-.2-3.6-1.4v6h-2.2v-15.9h2.1v1.2c1.4-1.1,3.3-1.5,4.4-1.5,2.5,0,4.1,2.8,4.1,5.8s-2.2,5.8-4.9,5.8ZM1015.6,529.6c-1.2,0-2.2.6-2.8,1.3v4.9c0,.5,0,.8.8,1.4.7.5,1.3.6,1.7.6,1.9,0,3.8-1.7,3.8-4.2s-1.6-4-3.6-4Z" fill="#000" stroke-width="0"/>
    <path d="M1029.6,539.4c-3.2,0-5.9-2.5-5.9-5.7s2.6-6,5.9-6,5.9,2.7,5.9,6-2.6,5.7-5.9,5.7ZM1029.6,529.4c-1.8,0-3.7,1.2-3.7,4.1s1.7,4.3,3.7,4.3,3.7-1.4,3.7-4.3-1.8-4.1-3.7-4.1Z" fill="#000" stroke-width="0"/>
    <path d="M1044.6,538.6c-.9.7-2,.8-3.1.8-2.1,0-3.6-.7-4.4-1.1l.3-1.9c1,.7,2.5,1.3,4.1,1.3s2.4,0,2.4-1.6-1.3-1.4-2.5-1.7c-1.3-.2-2.4-.4-3.2-1.3-.3-.3-1-1-1-2.1,0-3.3,3.8-3.3,4.4-3.3.9,0,2.2,0,3.8.8l-.3,1.8c-1.2-.6-2.3-1-3.8-1s-2.2,0-2.2,1.4,1.2,1.3,2.6,1.6c1.2.2,2.1.4,3,1.2,1,1,1.1,1.9,1.1,2.4,0,.8-.3,1.9-1.2,2.6Z" fill="#000" stroke-width="0"/>
    <path d="M1048.3,525.2v-2.5h2.5v2.5h-2.5ZM1048.5,539.2v-11.1h2.1v11.1h-2.1Z" fill="#000" stroke-width="0"/>
    <path d="M1057.7,539.4c-1.8,0-2.2-1.8-2.2-3.4v-6.3h-2.2v-1.6h2.3v-3.2h1.9v3.2h3.7v1.6h-3.7v5.9c0,1.2.3,2.2,1.3,2.2s1.6-.2,2.4-.8l.4,1.6c-.8.3-2.1.9-3.9.9Z" fill="#000" stroke-width="0"/>
    <path d="M1064.3,525.2v-2.5h2.5v2.5h-2.5ZM1064.5,539.2v-11.1h2.1v11.1h-2.1Z" fill="#000" stroke-width="0"/>
    <path d="M1076,539.2h-2.3l-4.6-11.1h2.1l2,5c.8,1.9,1.5,3.7,1.7,4.6h0c0-.6.2-1.2,3.7-9.6h2l-4.6,11.1Z" fill="#000" stroke-width="0"/>
    <path d="M1083.7,533.7c0,2.3,1.7,4.1,3.9,4.1s2.6-.3,4-1.3v1.8c-1.1.8-2.6,1.2-4.1,1.2-3.3,0-5.8-2.7-5.8-5.9s2.3-5.8,5.4-5.8,2.7.5,3.6,1.8c1,1.4,1.1,3.1,1.1,4.2h-8.2ZM1087.2,529.4c-1.2,0-2.7.8-3.3,2.8h6.5c-.5-2.3-2.1-2.8-3.2-2.8Z" fill="#000" stroke-width="0"/>
  </g>
  <g>
    <path d="M1014.6,577.5v-7.2c0-.7,0-2.5-2.6-2.5s-2.6,2-2.6,3.6v6.1h-2.2v-11.3h2v1.8c1.1-1.3,2.5-1.9,3.9-1.9,3.1,0,3.6,2,3.6,3.9v7.4h-2.2Z" fill="#000" stroke-width="0"/>
    <path d="M1021.7,572c0,2.3,1.7,4.1,3.9,4.1s2.6-.3,4-1.3v1.8c-1.1.8-2.6,1.2-4.1,1.2-3.3,0-5.8-2.7-5.8-5.9s2.3-5.8,5.4-5.8,2.7.5,3.6,1.8c1,1.4,1.1,3.1,1.1,4.2h-8.2ZM1025.2,567.7c-1.2,0-2.7.8-3.3,2.8h6.5c-.5-2.3-2.1-2.8-3.2-2.8Z" fill="#000" stroke-width="0"/>
    <path d="M1041.7,567.7c-.1,0-1.6,0-1.6,0,0,0,0,0,.1.2.4.7.7,1.4.7,2.2,0,2.1-1.8,4.1-4.3,4.1s-1.5-.2-2.4-.7c0,0-.2.3-.2.8,0,1.3,1.1,1.3,1.5,1.3h2.3c1.1,0,5.4,0,5.4,3.5s-2.6,3.4-5.9,3.4-5.9-1.5-5.9-3.4.3-1.8,1.6-2.6c-.2-.3-.6-.9-.6-1.9s.4-1.7.7-2.1c-.6-.7-.9-1.6-.9-2.5,0-2.2,1.8-4.1,4.3-4.1s1.6.2,2.5.8h0c1.9-.8,3.6-.8,4.1-.8l.3,1.7c-.9,0-1.9,0-1.9,0ZM1037.8,577.6h-2.4c-2,0-2,1.5-2,1.6,0,1.1,1.9,1.8,4,1.8s4-.8,4-1.8c0-1.6-3-1.6-3.5-1.6ZM1036.6,567.7c-1.1,0-2.3.6-2.3,2.6s1,2.5,2.3,2.5,2.3-.6,2.3-2.5-1-2.5-2.3-2.5Z" fill="#000" stroke-width="0"/>
    <path d="M1052.8,577.5v-1c-1.3,1-3.3,1.2-4.4,1.2-2.2,0-3-1.9-3-3.2,0-2.3,3.6-3.1,7.3-3.2v-1c0-1.9-1.1-2.7-2.2-2.7-2,0-3.2.8-4,1.3v-1.8c1.2-.8,2.5-1.1,4-1.1,2.5,0,4.4,1.7,4.4,4.3v7.2h-2.1ZM1052.7,572.7c-1.1,0-5.3.2-5.3,1.8s1,1.6,2.4,1.6,1.2,0,2-.5c.9-.5.9-1.2.9-1.7v-1.2Z" fill="#000" stroke-width="0"/>
    <path d="M1061.6,577.7c-1.8,0-2.2-1.8-2.2-3.4v-6.3h-2.2v-1.6h2.3v-3.2h1.9v3.2h3.7v1.6h-3.7v5.9c0,1.2.3,2.2,1.3,2.2s1.6-.2,2.4-.8l.4,1.6c-.7.3-2.1.9-3.9.9Z" fill="#000" stroke-width="0"/>
    <path d="M1068.2,563.5v-2.5h2.5v2.5h-2.5ZM1068.4,577.5v-11.1h2.1v11.1h-2.1Z" fill="#000" stroke-width="0"/>
    <path d="M1079.9,577.5h-2.3l-4.6-11.1h2.1l2,5c.8,1.9,1.5,3.7,1.7,4.6h0c.1-.6.2-1.2,3.7-9.6h2l-4.6,11.1Z" fill="#000" stroke-width="0"/>
    <path d="M1087.7,572c0,2.3,1.7,4.1,3.9,4.1s2.6-.3,4-1.3v1.8c-1.1.8-2.6,1.2-4.1,1.2-3.3,0-5.8-2.7-5.8-5.9s2.3-5.8,5.4-5.8,2.7.5,3.6,1.8c1,1.4,1.1,3.1,1.1,4.2h-8.2ZM1091.2,567.7c-1.2,0-2.7.8-3.3,2.8h6.5c-.5-2.3-2.1-2.8-3.2-2.8Z" fill="#000" stroke-width="0"/>
  </g>
  <g>
    <path d="M1209.9,628.6v-7.2c0-.7,0-2.5-2.6-2.5s-2.6,2-2.6,3.6v6.1h-2.2v-11.3h2v1.8c1.1-1.3,2.5-1.9,3.9-1.9,3.1,0,3.6,2,3.6,3.9v7.4h-2.2Z" fill="#000" stroke-width="0"/>
    <path d="M1220.8,628.8c-3.2,0-5.9-2.5-5.9-5.7s2.6-6,5.9-6,5.9,2.7,5.9,6-2.6,5.7-5.9,5.7ZM1220.8,618.8c-1.8,0-3.7,1.2-3.7,4.1s1.7,4.3,3.7,4.3,3.7-1.4,3.7-4.3-1.8-4.1-3.7-4.1Z" fill="#000" stroke-width="0"/>
    <path d="M1237.6,628.6v-1.3c-1,.8-2.4,1.5-3.9,1.5-2.6,0-4.5-2.6-4.5-5.8s2-5.8,4.6-5.8,2.3.2,3.9,1.3v-7.3h2.1v17.3h-2.2ZM1237.6,620.2c-.7-.8-1.5-1.3-2.5-1.3-1.7,0-3.8,1-3.8,4.2s1.8,4.1,3.5,4.1,2.1-.7,2.8-1.7v-5.3Z" fill="#000" stroke-width="0"/>
    <path d="M1244.7,623.1c0,2.3,1.7,4.1,3.9,4.1s2.6-.3,4-1.3l.2,1.8c-1.3.8-2.8,1.2-4.2,1.2-3.3,0-5.8-2.7-5.8-5.9s2.3-5.8,5.4-5.8,2.7.5,3.6,1.8c1,1.4,1.1,3.1,1.1,4.2h-8.2ZM1248.2,618.8c-1.2,0-2.7.8-3.3,2.8h6.5c-.5-2.3-2.1-2.8-3.2-2.8Z" fill="#000" stroke-width="0"/>
  </g>
  <path d="M1226.3,722.2v1c-4.9,55.7-22.3,88.1-52.2,97.1" fill="none" stroke="#53585f" stroke-width="2"/>
  <polygon points="1231 723.5 1226.9 713.6 1221.4 722.9 1231 723.5" fill="#53585f" stroke-width="0"/>
</svg>