<?xml version="1.0" encoding="UTF-8"?>
<svg id="Capa_1" data-name="Capa 1" xmlns="http://www.w3.org/2000/svg" version="1.1" viewBox="0 0 2372 1898">
  <path d="M2156.85,1064.07c-3.82-88.79-42.09-172.26-74.07-253.66-29.9-76.11-66.16-156.46-69.95-239.35-1.78-39.06,5.44-77.7,27.45-110.57,28.74-42.93,76.72-66.58,120.54-90.98,10.8-6.01,3.43-22.6-8.28-19.66-79.28,19.87-152.44,79.04-170.37,161.47-16.55,76.1,8.74,156.33,34.17,227.51,29.71,83.13,65.12,164.32,85.41,250.54,8.99,38.18,15.84,78.96,13.32,118.32-2.72,42.58-23.15,84.43-50.2,116.8-34.56,41.37-80.48,74.03-132.21,89.95-18.11,5.57-36.28,9.83-54.82,11.89,75.43-264.11-155.26-471.59-390.72-490.23-126.44-10.02-196.7.3-299.71-26.81,26.43-33.3,32.9-70.81,32.43-97.24-.55-30.42-43.35-89.64-99.63-93.99-24.69-1.9-47.49,2.52-68.31,10.98,0,0,.06-.04.06-.04-.34.14-.69.31-1.03.45-1.5.62-2.97,1.26-4.45,1.92-37.34,16.41-69.93,43.63-95.62,70.75-42.38-18.98-97.04-29.83-166.76-22.34-154.69,16.61-292.98,132.52-374.64,219.08-2.38-4.82-4.82-9.61-7.41-14.33-16.67-30.4-36.22-59.63-60.1-84.85-12.61-13.32-26.94-24.42-43.16-33.03-3.63-1.93-6.45,3.12-3.18,5.44,12.79,9.07,23.66,20.63,34.41,31.96,11.48,12.1,21.84,25.24,31.6,38.76,14.78,20.49,28.07,42.28,39.67,64.83-5.22,5.66-10.2,11.19-14.88,16.51-7.62-8.06-16-15.42-24.38-22.14-27.83-22.34-58.95-40.38-91.75-54.36-9.81-4.18-19.74-8.17-29.93-11.34-10.01-3.12-20.61-5.26-30.89-7.45-3.98-.84-5.51,4.77-1.67,6.07,17.25,5.92,34.07,13.21,50.82,20.41,16.54,7.09,32.69,15.18,48.37,24.02,25.93,14.63,51.02,32.05,72.02,53.32-9.1,10.6-17.02,20.3-23.59,28.72-18.97-.46-54.04,13.57-55.37,30.47-1.6,20.6,37.28,48.54,54.64,41.88,1.91-.74,3.68-2.04,5.32-3.76,28.04,21.09,67.93,35.03,110.92,44.14.25.47.52.94.78,1.42,16.49,30.65,30.39,63.34,39.04,97.11,2,7.81,3.6,15.74,4.82,23.71,1.01,6.59,2.06,13.23,2.09,19.93.02,3.21,5.04,4.09,5.75.77,2.85-13.49,1.78-26.68-.76-40.13-3.14-16.67-8.02-32.93-13.94-48.81-6.47-17.35-13.87-34.42-22.31-50.95,22.47,4.12,45.48,7.04,67.84,9.06,10.9,14.15,21.34,28.65,31.3,43.48,4.77,7.12,9.38,14.36,13.92,21.63,3.6,5.77,7.55,11.32,10.96,17.2,1.63,2.81,6.4.96,5.35-2.25-4.31-13.11-10.5-25.01-17.65-36.76-8.78-14.43-18.23-28.4-28.22-42,47.45,3.51,90.47,3.24,116.94,2.4,71.33-2.24,148.3,8.9,209.35,33.65,10.25,6.39,20.5,13.01,30.77,19.89,3.25,4.48,7.51,9.32,13.01,14.54,76.37,72.65,38.14,234.27,9.71,277.33-28.93,43.83-77.37,28.56-85.5,50.95-5.28,14.54-.22,39.34,54.05,44.99,117.87,12.26,138.82-122.26,159.24-178.44,6.02-16.56,14.47-39.48,21.09-64.66,22.61,23.66,45.3,49.44,68.07,77.76,29.71,36.94,65.77,66.68,104.39,90.47-123.91,17.17-138.79,91.45-138.79,91.45h428.98s.74,0,2.02-.11c52.58-.79,93.05-6.36,124.45-15.61,53.51-11.36,106.45-36.07,141.13-94.3,16.24-27.26,29.04-54.13,38.84-80.52,10.79.1,21.36-.39,31.36-1.43,50.53-5.27,98.08-26.75,138.38-57.3,74.14-56.22,123.5-140.13,119.45-234.51ZM716.83,834.1c-3.57-5.98-7.92-10.39-12.87-13.36-4.93-2.98-10.33-4.44-15.8-4.48-5.46,0-10.87,1.44-15.82,4.4-4.97,2.95-9.34,7.35-12.92,13.33-.73-6.99,2.35-14.46,7.77-19.76,5.39-5.36,13.19-8.52,21-8.48,7.8-.03,15.6,3.17,20.97,8.56,5.4,5.32,8.44,12.81,7.67,19.8Z" fill="#231f20" stroke-width="0"/>
  <path d="M1096.56,598.87c-1.49-26.1-9.66-48.47-18.36-64.59-14.44-26.77-79.67-59.72-131.65-37.73-69.42,29.35-96.5,102.52-108.02,162.58,43.14,2.43,78.99,12.58,108.61,26.67,35.17-42.44,85.5-85.55,149.42-86.93Z" fill="#231f20" stroke-width="0"/>
</svg>